<?xml version="1.0" encoding="UTF-8"?>
<svg id="uuid-afd7d191-2161-472e-983f-71ab26078dea" data-name="Camada 1" xmlns="http://www.w3.org/2000/svg" viewBox="0 0 440.59 967.32">
  <defs>
    <style>
      .uuid-20dac9b1-e36a-4ea2-9f8b-968b6e71802e {
        fill: none;
        stroke: #fff;
        stroke-miterlimit: 10;
      }
    </style>
  </defs>
  <path class="uuid-20dac9b1-e36a-4ea2-9f8b-968b6e71802e" d="m220.3,370.41c-62.54,0-113.25,50.71-113.25,113.25s50.71,113.25,113.25,113.25,113.25-50.71,113.25-113.25-50.71-113.25-113.25-113.25Zm50.1,116.63c-1.86,28.15-26.2,49.46-54.35,47.59-28.16-1.86-49.47-26.2-47.6-54.35,1.84-27.6,25.27-48.63,52.73-47.69-10.35,6.55-17.22,18.1-17.22,31.26,0,20.43,16.55,36.98,36.98,36.98,12.05,0,22.76-5.76,29.51-14.69-.01.3-.03.6-.05.91Z"/>
  <g>
    <path class="uuid-20dac9b1-e36a-4ea2-9f8b-968b6e71802e" d="m.5.5v318.74c50.06-66.82,129.88-110.05,219.8-110.05s169.73,43.24,219.8,110.05V.5H.5Zm57.5,85.25c-14.07,0-25.47-11.4-25.47-25.47s11.4-25.47,25.47-25.47,25.47,11.4,25.47,25.47-11.4,25.47-25.47,25.47Z"/>
    <path class="uuid-20dac9b1-e36a-4ea2-9f8b-968b6e71802e" d="m220.3,758.14c-89.92,0-169.73-43.24-219.8-110.06v318.74h439.59v-318.74c-50.06,66.82-129.88,110.06-219.8,110.06Zm169.44,177.42h-98.27c-7.46,0-13.56-6.1-13.56-13.56s6.1-13.56,13.56-13.56h98.27c7.46,0,13.56,6.1,13.56,13.56s-6.1,13.56-13.56,13.56Z"/>
  </g>
</svg>